<?xml version="1.0" standalone="no"?>
<!DOCTYPE svg PUBLIC "-//W3C//DTD SVG 20010904//EN"
 "http://www.w3.org/TR/2001/REC-SVG-20010904/DTD/svg10.dtd">
<svg version="1.0" xmlns="http://www.w3.org/2000/svg"
 width="700.000000pt" height="700.000000pt" viewBox="0 0 700.000000 700.000000"
 preserveAspectRatio="xMidYMid meet">
<metadata>
Created by potrace 1.14, written by Peter Selinger 2001-2017
</metadata>
<g transform="translate(0.000000,700.000000) scale(0.100000,-0.100000)"
fill="#000000" stroke="none">
<path d="M3298 6705 c-2 -2 -39 -6 -83 -10 -44 -4 -91 -8 -105 -10 -14 -2 -47
-7 -75 -10 -27 -3 -81 -13 -120 -20 -38 -8 -81 -16 -95 -19 -120 -21 -380
-102 -545 -170 -76 -32 -281 -131 -350 -170 -135 -75 -370 -237 -466 -320 -19
-17 -62 -54 -95 -83 -153 -133 -347 -350 -482 -538 -285 -399 -499 -933 -557
-1391 -2 -21 -7 -50 -9 -64 -20 -101 -28 -523 -13 -678 66 -723 370 -1402 857
-1916 79 -83 181 -181 235 -227 22 -19 42 -36 45 -39 3 -3 25 -21 50 -40 25
-19 47 -37 50 -40 8 -8 68 -52 140 -102 112 -78 241 -154 370 -218 69 -34 133
-66 142 -71 66 -34 278 -109 453 -162 71 -21 271 -65 330 -72 28 -3 59 -8 71
-10 87 -19 195 -26 414 -29 183 -3 276 1 418 19 23 3 63 8 90 11 87 10 296 56
417 90 733 211 1361 672 1791 1315 46 70 84 130 84 134 0 4 9 19 20 35 19 26
130 246 163 320 30 70 79 193 82 209 2 9 13 42 24 75 49 139 99 355 126 541 4
22 8 50 10 61 12 75 19 225 19 394 0 226 -9 347 -40 530 -113 674 -437 1291
-927 1768 -93 91 -170 160 -201 181 -12 8 -23 18 -26 21 -14 19 -223 166 -322
228 -394 245 -870 411 -1313 458 -27 3 -63 7 -80 10 -36 5 -492 14 -497 9z
m417 -589 c150 -15 226 -26 345 -52 389 -83 803 -282 1090 -523 108 -90 136
-116 228 -211 309 -315 526 -690 650 -1125 23 -80 57 -238 66 -305 3 -25 8
-54 10 -65 9 -45 19 -207 19 -315 3 -317 -53 -641 -160 -930 -83 -226 -273
-562 -415 -732 -253 -307 -527 -528 -863 -698 -208 -106 -483 -202 -665 -234
-19 -3 -44 -8 -55 -10 -11 -2 -42 -7 -70 -10 -27 -4 -77 -11 -110 -15 -151
-21 -427 -18 -610 5 -196 24 -481 95 -600 148 -16 8 -41 17 -55 21 -42 12
-303 141 -366 181 -88 55 -167 107 -184 121 -302 236 -432 369 -613 619 -231
321 -400 743 -452 1124 -3 25 -8 52 -10 60 -23 90 -22 545 1 664 2 11 7 41 10
66 5 40 27 149 40 205 3 11 8 34 11 50 10 56 92 293 138 398 101 229 250 465
417 660 95 111 287 295 362 346 12 8 23 18 26 21 9 11 174 124 235 161 278
169 555 276 875 338 25 5 69 12 99 16 30 4 63 8 74 11 11 2 61 6 111 10 50 3
92 7 93 8 5 4 265 -2 328 -8z"/>
<path d="M2563 4660 c-134 -30 -226 -146 -227 -285 0 -163 124 -287 289 -289
255 -2 385 294 214 488 -60 69 -182 107 -276 86z"/>
<path d="M4289 4653 c-72 -23 -137 -79 -172 -148 -27 -50 -31 -70 -31 -130 1
-165 123 -287 290 -288 117 -1 209 56 266 166 30 58 31 173 2 238 -63 137
-216 206 -355 162z"/>
<path d="M2258 2905 c-207 -53 -283 -313 -140 -476 17 -19 57 -48 89 -65 l58
-29 1235 0 1235 0 57 28 c219 107 218 417 0 524 l-57 28 -1217 1 c-864 0
-1229 -3 -1260 -11z"/>
</g>
</svg>
